<mxfile host="app.diagrams.net" modified="2023-12-19T01:11:32.120Z" agent="Mozilla/5.0 (Windows NT 10.0; Win64; x64; rv:120.0) Gecko/20100101 Firefox/120.0" etag="VuLbIGKJFo3KQMK0XpwF" version="22.1.11" type="github">
  <diagram name="Page-1" id="A9nNWPf0T-eDOdcRiyWC">
    <mxGraphModel dx="794" dy="718" grid="1" gridSize="10" guides="1" tooltips="1" connect="1" arrows="1" fold="1" page="1" pageScale="1" pageWidth="850" pageHeight="1100" math="0" shadow="0">
      <root>
        <mxCell id="0" />
        <mxCell id="1" parent="0" />
        <mxCell id="9b6aUP7OF-jvF8b9pPk9-1" value="" style="endArrow=none;html=1;rounded=0;" edge="1" parent="1">
          <mxGeometry width="50" height="50" relative="1" as="geometry">
            <mxPoint x="240" y="720" as="sourcePoint" />
            <mxPoint x="780" y="720" as="targetPoint" />
          </mxGeometry>
        </mxCell>
        <mxCell id="9b6aUP7OF-jvF8b9pPk9-2" value="" style="endArrow=none;html=1;rounded=0;" edge="1" parent="1">
          <mxGeometry width="50" height="50" relative="1" as="geometry">
            <mxPoint x="780" y="720" as="sourcePoint" />
            <mxPoint x="780" y="40" as="targetPoint" />
          </mxGeometry>
        </mxCell>
        <mxCell id="9b6aUP7OF-jvF8b9pPk9-4" value="" style="endArrow=none;html=1;rounded=0;" edge="1" parent="1">
          <mxGeometry width="50" height="50" relative="1" as="geometry">
            <mxPoint x="40" y="720" as="sourcePoint" />
            <mxPoint x="40" y="40" as="targetPoint" />
          </mxGeometry>
        </mxCell>
        <mxCell id="9b6aUP7OF-jvF8b9pPk9-5" value="" style="endArrow=none;html=1;rounded=0;" edge="1" parent="1">
          <mxGeometry width="50" height="50" relative="1" as="geometry">
            <mxPoint x="40" y="720" as="sourcePoint" />
            <mxPoint x="130" y="720" as="targetPoint" />
          </mxGeometry>
        </mxCell>
        <mxCell id="9b6aUP7OF-jvF8b9pPk9-6" value="" style="image;points=[];aspect=fixed;html=1;align=center;shadow=0;dashed=0;image=img/lib/allied_telesis/computer_and_terminals/Personal_Computer_with_Server.svg;" vertex="1" parent="1">
          <mxGeometry x="60" y="540" width="42.4" height="42.4" as="geometry" />
        </mxCell>
        <mxCell id="9b6aUP7OF-jvF8b9pPk9-7" value="" style="image;points=[];aspect=fixed;html=1;align=center;shadow=0;dashed=0;image=img/lib/allied_telesis/computer_and_terminals/Personal_Computer_with_Server.svg;" vertex="1" parent="1">
          <mxGeometry x="690" y="540" width="42.4" height="42.4" as="geometry" />
        </mxCell>
        <mxCell id="9b6aUP7OF-jvF8b9pPk9-8" value="" style="image;points=[];aspect=fixed;html=1;align=center;shadow=0;dashed=0;image=img/lib/allied_telesis/computer_and_terminals/Personal_Computer_with_Server.svg;" vertex="1" parent="1">
          <mxGeometry x="690" y="430" width="42.4" height="42.4" as="geometry" />
        </mxCell>
        <mxCell id="9b6aUP7OF-jvF8b9pPk9-9" value="" style="image;points=[];aspect=fixed;html=1;align=center;shadow=0;dashed=0;image=img/lib/allied_telesis/computer_and_terminals/Personal_Computer_with_Server.svg;" vertex="1" parent="1">
          <mxGeometry x="690" y="320" width="42.4" height="42.4" as="geometry" />
        </mxCell>
        <mxCell id="9b6aUP7OF-jvF8b9pPk9-10" value="" style="image;points=[];aspect=fixed;html=1;align=center;shadow=0;dashed=0;image=img/lib/allied_telesis/computer_and_terminals/Personal_Computer_with_Server.svg;" vertex="1" parent="1">
          <mxGeometry x="240" y="70" width="42.4" height="42.4" as="geometry" />
        </mxCell>
        <mxCell id="9b6aUP7OF-jvF8b9pPk9-11" value="" style="image;points=[];aspect=fixed;html=1;align=center;shadow=0;dashed=0;image=img/lib/allied_telesis/computer_and_terminals/Personal_Computer_with_Server.svg;" vertex="1" parent="1">
          <mxGeometry x="690" y="70" width="42.4" height="42.4" as="geometry" />
        </mxCell>
        <mxCell id="9b6aUP7OF-jvF8b9pPk9-12" value="" style="image;points=[];aspect=fixed;html=1;align=center;shadow=0;dashed=0;image=img/lib/allied_telesis/computer_and_terminals/Personal_Computer_with_Server.svg;" vertex="1" parent="1">
          <mxGeometry x="60" y="440" width="42.4" height="42.4" as="geometry" />
        </mxCell>
        <mxCell id="9b6aUP7OF-jvF8b9pPk9-13" value="" style="image;points=[];aspect=fixed;html=1;align=center;shadow=0;dashed=0;image=img/lib/allied_telesis/computer_and_terminals/Personal_Computer_with_Server.svg;" vertex="1" parent="1">
          <mxGeometry x="80" y="70" width="42.4" height="42.4" as="geometry" />
        </mxCell>
        <mxCell id="9b6aUP7OF-jvF8b9pPk9-14" value="" style="image;points=[];aspect=fixed;html=1;align=center;shadow=0;dashed=0;image=img/lib/allied_telesis/computer_and_terminals/Personal_Computer_with_Server.svg;" vertex="1" parent="1">
          <mxGeometry x="60" y="262.4" width="42.4" height="42.4" as="geometry" />
        </mxCell>
        <mxCell id="9b6aUP7OF-jvF8b9pPk9-15" value="" style="points=[[0.22,0.185,0],[0.5,0,0],[0.78,0.185,0],[0.975,0.49,0],[1,0.73,0],[0.975,0.97,0],[0.5,1,0],[0.025,0.97,0],[0,0.73,0],[0.025,0.49,0]];verticalLabelPosition=bottom;sketch=0;html=1;verticalAlign=top;aspect=fixed;align=center;pointerEvents=1;shape=mxgraph.cisco19.printer;fillColor=#005073;strokeColor=none;" vertex="1" parent="1">
          <mxGeometry x="682.4" y="120" width="50" height="45" as="geometry" />
        </mxCell>
        <mxCell id="9b6aUP7OF-jvF8b9pPk9-17" value="" style="points=[[0.22,0.185,0],[0.5,0,0],[0.78,0.185,0],[0.975,0.49,0],[1,0.73,0],[0.975,0.97,0],[0.5,1,0],[0.025,0.97,0],[0,0.73,0],[0.025,0.49,0]];verticalLabelPosition=bottom;sketch=0;html=1;verticalAlign=top;aspect=fixed;align=center;pointerEvents=1;shape=mxgraph.cisco19.printer;fillColor=#005073;strokeColor=none;" vertex="1" parent="1">
          <mxGeometry x="56.19999999999999" y="385" width="50" height="45" as="geometry" />
        </mxCell>
        <mxCell id="9b6aUP7OF-jvF8b9pPk9-19" value="" style="image;points=[];aspect=fixed;html=1;align=center;shadow=0;dashed=0;image=img/lib/allied_telesis/computer_and_terminals/Personal_Computer_with_Server.svg;" vertex="1" parent="1">
          <mxGeometry x="720" y="670" width="42.4" height="42.4" as="geometry" />
        </mxCell>
        <mxCell id="9b6aUP7OF-jvF8b9pPk9-21" value="" style="image;points=[];aspect=fixed;html=1;align=center;shadow=0;dashed=0;image=img/lib/allied_telesis/switch/Switch_24_port_L2_POE.svg;" vertex="1" parent="1">
          <mxGeometry x="645.6" y="661.4" width="74.4" height="51" as="geometry" />
        </mxCell>
        <mxCell id="9b6aUP7OF-jvF8b9pPk9-22" value="" style="endArrow=none;html=1;rounded=0;" edge="1" parent="1">
          <mxGeometry width="50" height="50" relative="1" as="geometry">
            <mxPoint x="40" y="40" as="sourcePoint" />
            <mxPoint x="780" y="40" as="targetPoint" />
          </mxGeometry>
        </mxCell>
      </root>
    </mxGraphModel>
  </diagram>
</mxfile>
